<svg width="24" height="24" viewBox="0 0 24 24" fill="none" xmlns="http://www.w3.org/2000/svg">
<path d="M14.8199 4.25977C14.6213 4.61545 14.4443 4.98279 14.2899 5.35977C12.7727 5.11982 11.2272 5.11982 9.70992 5.35977C9.55551 4.98279 9.37852 4.61545 9.17992 4.25977C7.75071 4.50397 6.36132 4.9413 5.04992 5.55977C2.70486 8.94405 1.64135 13.0527 2.04992 17.1498C3.57816 18.2986 5.29338 19.1748 7.11992 19.7398C7.53583 19.1904 7.90702 18.6085 8.22992 17.9998C7.63399 17.78 7.06121 17.502 6.51992 17.1698C6.66838 17.071 6.80882 16.9606 6.93992 16.8398C8.51838 17.6001 10.2479 17.9949 11.9999 17.9949C13.752 17.9949 15.4815 17.6001 17.0599 16.8398C17.1999 16.9598 17.3399 17.0698 17.4799 17.1698C16.9357 17.4994 16.3635 17.7805 15.7699 18.0098C16.0794 18.6323 16.4407 19.2277 16.8499 19.7898C18.6742 19.2268 20.3864 18.3504 21.9099 17.1998C22.3283 13.102 21.2639 8.98995 18.9099 5.60977C17.6133 4.9785 16.2376 4.52444 14.8199 4.25977ZM8.67992 14.8098C8.1795 14.7738 7.71246 14.5455 7.37684 14.1725C7.04122 13.7996 6.86311 13.3112 6.87992 12.8098C6.86058 12.3077 7.03781 11.8178 7.37393 11.4444C7.71006 11.0709 8.17858 10.8432 8.67992 10.8098C9.18126 10.8432 9.64978 11.0709 9.98591 11.4444C10.322 11.8178 10.4993 12.3077 10.4799 12.8098C10.4993 13.3118 10.322 13.8017 9.98591 14.1752C9.64978 14.5486 9.18126 14.7763 8.67992 14.8098ZM15.3199 14.8098C14.8195 14.7738 14.3525 14.5455 14.0168 14.1725C13.6812 13.7996 13.5031 13.3112 13.5199 12.8098C13.5006 12.3077 13.6778 11.8178 14.0139 11.4444C14.3501 11.0709 14.8186 10.8432 15.3199 10.8098C15.8222 10.8407 16.2922 11.0677 16.6289 11.4417C16.9655 11.8158 17.1418 12.307 17.1199 12.8098C17.1418 13.3125 16.9655 13.8038 16.6289 14.1778C16.2922 14.5519 15.8222 14.7788 15.3199 14.8098Z" fill="white"/>
</svg>
